<?xml version="1.0" encoding="utf-8"?>
<!-- Generator: Adobe Illustrator 24.3.0, SVG Export Plug-In . SVG Version: 6.00 Build 0)  -->
<svg version="1.0" id="katman_1" xmlns="http://www.w3.org/2000/svg" xmlns:xlink="http://www.w3.org/1999/xlink" x="0px" y="0px"
	 viewBox="0 0 841.89 595.28" style="enable-background:new 0 0 841.89 595.28;" xml:space="preserve">
<style type="text/css">
	.st0{fill:#FFFFFF;}
	.st1{fill:#0180FA;}
</style>
<circle class="st0" cx="421.25" cy="297.44" r="251.41"/>
<g>
	<path class="st1" d="M336.64,309.87v46.36l-28.83,27.88l0,0v44.19c-1.28,0.6-2.1,1.88-2.11,3.29c0.19,2.1,2.05,3.64,4.14,3.45
		c1.84-0.17,3.29-1.63,3.45-3.47c-0.02-1.41-0.84-2.68-2.11-3.28v-42.83l28.85-27.88l0,0v-47.72L336.64,309.87z M311.28,431.62
		c0.03,0.98-0.74,1.79-1.72,1.82c-0.98,0.03-1.79-0.74-1.82-1.72c-0.03-0.97,0.74-1.79,1.71-1.82h0.05
		C310.47,429.9,311.26,430.66,311.28,431.62z"/>
	<path class="st1" d="M347.01,309.87v48.32l-28.84,27.88l0,0v30.75c-1.28,0.6-2.1,1.88-2.11,3.29c0.11,2.1,1.9,3.72,4,3.61
		c1.95-0.1,3.51-1.66,3.61-3.61c-0.01-1.41-0.84-2.69-2.11-3.29v-29.39l28.83-27.88l0,0v-49.68L347.01,309.87z M321.64,420.1
		c0.03,0.98-0.74,1.79-1.72,1.82c-0.98,0.03-1.79-0.74-1.82-1.72c-0.03-0.98,0.74-1.79,1.72-1.82c0,0,0.01,0,0.01,0h0.05
		c0.96-0.01,1.75,0.76,1.77,1.72L321.64,420.1z"/>
	<path class="st1" d="M581.98,239.05c-0.18-0.17-0.36-0.34-0.53-0.5c-0.18-0.16-0.35-0.34-0.5-0.5c-0.15-0.16-0.35-0.34-0.53-0.5
		c-0.18-0.16-0.35-0.34-0.5-0.5s-0.35-0.34-0.53-0.5c-0.18-0.16-0.35-0.34-0.5-0.5s-0.35-0.35-0.5-0.5c-0.15-0.16-0.35-0.34-0.5-0.5
		s-0.35-0.34-0.53-0.5c-0.18-0.16-0.35-0.34-0.5-0.5s-0.35-0.34-0.53-0.5c-0.18-0.16-0.35-0.34-0.5-0.5
		c-0.15-0.16-0.35-0.34-0.5-0.5s-0.35-0.34-0.53-0.5c-0.18-0.16-0.35-0.34-0.5-0.5s-0.35-0.35-0.5-0.5
		c-0.15-0.16-0.36-0.34-0.53-0.5c-0.18-0.16-0.35-0.34-0.5-0.5c-0.15-0.16-0.35-0.34-0.53-0.5c-0.18-0.16-0.34-0.33-0.5-0.5
		c-1.83-1.76-3.8-3.37-5.88-4.82c-2.37-24.4-13.64-46.31-30.63-62.63c-0.18-0.17-0.35-0.34-0.53-0.5c-0.18-0.16-0.35-0.34-0.53-0.5
		s-0.35-0.34-0.53-0.5l-0.53-0.5l-0.5-0.5l-0.53-0.5l-0.5-0.5l-0.5-0.5l-0.53-0.5l-0.5-0.5l-0.53-0.5l-0.5-0.5
		c-0.18-0.17-0.35-0.34-0.5-0.5l-0.5-0.5l-0.53-0.5l-0.5-0.5c-0.18-0.18-0.35-0.35-0.53-0.5l-0.5-0.5l-0.53-0.5l-0.5-0.5
		c-20.06-19.46-46.94-30.3-74.89-30.2c-32.33-0.45-63.07,13.98-83.36,39.15c-5.86-1.67-11.92-2.51-18.01-2.52
		c-33.76,0-61.37,25.39-63.55,57.49c-22.42,4.5-39.3,23.71-39.3,46.73c0.02,12.88,5.35,25.18,14.73,34.01
		c0.18,0.17,0.35,0.34,0.53,0.5l0.53,0.5c0.18,0.17,0.35,0.34,0.53,0.5l0.5,0.5l0.5,0.5l0.53,0.5c0.18,0.17,0.35,0.34,0.53,0.5
		c0.18,0.16,0.35,0.35,0.53,0.5c0.18,0.16,0.35,0.34,0.5,0.5s0.35,0.35,0.53,0.5c0.18,0.16,0.35,0.34,0.5,0.5s0.36,0.35,0.53,0.5
		l0.5,0.5l0.5,0.5l0.53,0.5c0.18,0.17,0.35,0.34,0.53,0.5l0.53,0.5l0.5,0.5l0.5,0.5c0.18,0.17,0.35,0.34,0.53,0.5
		c9.4,9.18,22.03,14.29,35.17,14.24h241.6c27.13-0.16,49.08-21.46,49.08-47.73C596.55,259.96,591.25,247.81,581.98,239.05z"/>
	<path class="st1" d="M418.74,466.67V309.87h-3.38v156.78c-1.27,0.6-2.09,1.87-2.11,3.28c0.08,2.1,1.84,3.74,3.94,3.66
		c1.99-0.07,3.59-1.67,3.66-3.66C420.83,468.53,420.01,467.26,418.74,466.67z M417.04,471.67c-0.95-0.02-1.7-0.81-1.67-1.76
		c0.02-0.95,0.81-1.7,1.76-1.67c0.93,0.02,1.67,0.79,1.67,1.72c-0.02,0.96-0.81,1.73-1.78,1.72c0,0,0,0,0,0l0,0H417.04z"/>
	<path class="st1" d="M427.96,447.51V309.87h-3.39v137.64c-1.27,0.6-2.09,1.87-2.11,3.28c0.08,2.1,1.84,3.74,3.94,3.66
		c1.99-0.07,3.59-1.67,3.66-3.66C430.05,449.38,429.23,448.11,427.96,447.51z M426.29,452.52c-0.95-0.03-1.69-0.82-1.67-1.77
		c0.03-0.95,0.82-1.69,1.77-1.67c0.93,0.03,1.67,0.79,1.67,1.72C428.03,451.76,427.24,452.53,426.29,452.52L426.29,452.52z"/>
	<path class="st1" d="M476.84,344.95v-35.08h-3.39v35.07c-1.28,0.59-2.1,1.86-2.11,3.27c0.08,2.1,1.84,3.74,3.94,3.66
		c1.99-0.07,3.59-1.67,3.66-3.66C478.92,346.82,478.1,345.55,476.84,344.95z M475.14,349.95c-0.95-0.03-1.69-0.82-1.67-1.77
		c0.03-0.95,0.82-1.69,1.77-1.67c0.93,0.03,1.67,0.79,1.67,1.71C476.89,349.2,476.1,349.97,475.14,349.95z"/>
	<path class="st1" d="M461.12,380.99c-0.41,0-0.82,0.07-1.21,0.2l-22.62-21.84v-49.47h-3.38v50.53l-0.14,0.13l23.72,22.97
		c-0.13,0.38-0.2,0.77-0.2,1.17c-0.07,2.1,1.58,3.86,3.68,3.93c2.1,0.07,3.86-1.58,3.93-3.68c0.07-2.1-1.57-3.85-3.67-3.93h-0.13
		L461.12,380.99z M461.12,386.38c-0.95-0.02-1.7-0.81-1.67-1.76c0.03-0.95,0.81-1.7,1.76-1.67c0.93,0.02,1.67,0.79,1.67,1.72
		c-0.01,0.96-0.8,1.73-1.76,1.72c0,0,0,0,0,0l0,0V386.38z"/>
	<path class="st1" d="M496.12,410.26v-30.02l0,0l-28.85-27.87v-42.49h-3.38v43.79l0,0l28.84,27.88v28.69
		c-1.28,0.6-2.1,1.88-2.11,3.29c0.08,2.1,1.84,3.74,3.94,3.66c1.99-0.07,3.59-1.67,3.66-3.66
		C498.2,412.12,497.38,410.86,496.12,410.26z M494.43,415.26c-0.95-0.03-1.69-0.82-1.67-1.77c0.03-0.95,0.82-1.69,1.77-1.67
		c0.93,0.03,1.67,0.79,1.67,1.71C496.18,414.51,495.39,415.27,494.43,415.26z"/>
	<path class="st1" d="M485.71,426.38v-44.2l0,0l-28.84-27.87v-44.44h-3.38v45.76l0,0l28.83,27.87v42.87
		c-1.28,0.6-2.1,1.88-2.11,3.29c0.11,2.1,1.9,3.72,4,3.61c1.95-0.1,3.51-1.66,3.61-3.61C487.8,428.26,486.98,426.98,485.71,426.38z
		 M484.03,431.41c-0.95-0.03-1.7-0.81-1.67-1.76c0.02-0.95,0.81-1.7,1.76-1.67c0.93,0.02,1.67,0.79,1.67,1.72
		c-0.03,0.95-0.81,1.7-1.76,1.69V431.41z"/>
	<path class="st1" d="M475.36,414.89v-30.75l0,0l-28.84-27.88v-46.38h-3.37v47.71l0,0l28.83,27.87v29.41
		c-1.28,0.6-2.1,1.88-2.11,3.29c0.08,2.1,1.84,3.74,3.94,3.66c1.99-0.07,3.59-1.67,3.66-3.66
		C477.46,416.75,476.63,415.48,475.36,414.89z M473.68,419.89c-0.95-0.02-1.7-0.81-1.67-1.76c0.02-0.95,0.81-1.7,1.76-1.67
		c0.93,0.02,1.67,0.79,1.67,1.72C475.42,419.14,474.63,419.9,473.68,419.89L473.68,419.89z"/>
	<path class="st1" d="M536.47,412.2v-30.03l0,0l-28.84-27.89v-44.4h-3.38v45.76l0,0l28.84,27.87v28.69c-1.27,0.6-2.1,1.87-2.11,3.28
		c0.11,2.1,1.9,3.72,4,3.61c1.95-0.1,3.51-1.66,3.61-3.61C538.56,414.07,537.74,412.79,536.47,412.2z M534.78,417.23
		c-0.95-0.02-1.7-0.81-1.67-1.76c0.03-0.95,0.81-1.7,1.76-1.67c0.93,0.02,1.67,0.79,1.67,1.72
		C536.52,416.48,535.74,417.24,534.78,417.23L534.78,417.23z"/>
	<path class="st1" d="M526.07,428.33v-44.21l0,0l-28.82-27.89v-46.36h-3.38v47.71l0,0l28.83,27.88v42.86
		c-1.27,0.6-2.09,1.87-2.11,3.28c0.08,2.1,1.84,3.74,3.94,3.66c1.99-0.07,3.59-1.67,3.66-3.66
		C528.18,430.2,527.35,428.93,526.07,428.33z M524.38,433.34c-0.95-0.03-1.69-0.82-1.67-1.77c0.03-0.95,0.82-1.69,1.77-1.67
		c0.93,0.03,1.67,0.79,1.67,1.72C526.12,432.58,525.33,433.34,524.38,433.34z"/>
	<path class="st1" d="M515.71,416.84v-30.75l0,0l-28.84-27.89v-48.32h-3.38v49.67l0,0l28.83,27.87v29.42
		c-1.27,0.6-2.08,1.87-2.1,3.28c0.11,2.1,1.9,3.72,4,3.61c1.95-0.1,3.51-1.66,3.61-3.61C517.82,418.71,516.99,417.44,515.71,416.84z
		 M514.03,421.84c-0.95-0.03-1.7-0.81-1.67-1.76c0.02-0.95,0.81-1.7,1.76-1.67c0.93,0.02,1.67,0.79,1.67,1.72
		C515.77,421.09,514.98,421.85,514.03,421.84z"/>
	<path class="st1" d="M409.3,447.51V309.87h-3.37v137.64c-1.27,0.6-2.1,1.87-2.11,3.28c0.11,2.1,1.9,3.72,4,3.61
		c1.95-0.1,3.51-1.66,3.61-3.61C411.4,449.38,410.58,448.11,409.3,447.51z M407.61,452.52c-0.95-0.02-1.7-0.81-1.67-1.76
		c0.02-0.95,0.81-1.7,1.76-1.67c0.93,0.02,1.67,0.79,1.67,1.72C409.36,451.76,408.57,452.53,407.61,452.52z"/>
	<path class="st1" d="M360.44,344.95v-35.08h-3.36v35.07c-1.27,0.59-2.1,1.87-2.11,3.27c0.08,2.1,1.84,3.74,3.94,3.66
		c1.99-0.07,3.59-1.67,3.66-3.66C362.55,346.81,361.72,345.54,360.44,344.95z M358.73,349.95c-0.95-0.03-1.69-0.82-1.67-1.77
		c0.03-0.95,0.82-1.69,1.77-1.67c0.93,0.03,1.67,0.79,1.67,1.71C360.49,349.2,359.7,349.97,358.73,349.95z"/>
	<path class="st1" d="M399.98,360.42v-50.54h-3.39v49.47l-22.62,21.86c-0.39-0.13-0.8-0.19-1.21-0.19c-2.03,0.07-3.62,1.77-3.56,3.8
		c0.07,2.03,1.77,3.62,3.8,3.56c1.98-0.07,3.56-1.69,3.56-3.68c0-0.4-0.07-0.8-0.2-1.17l23.75-22.98L399.98,360.42z M372.77,386.39
		c-0.95-0.02-1.7-0.81-1.67-1.76c0.02-0.95,0.81-1.7,1.76-1.67c0.93,0.02,1.67,0.79,1.67,1.72
		C374.52,385.64,373.73,386.4,372.77,386.39z"/>
	<path class="st1" d="M366.61,309.87v42.43l-28.84,27.88l0,0v30.04c-1.28,0.6-2.1,1.88-2.11,3.29c0.08,2.1,1.84,3.74,3.94,3.66
		c1.99-0.07,3.59-1.67,3.66-3.66c-0.01-1.41-0.84-2.69-2.11-3.29v-28.69l28.82-27.85l0,0v-43.79L366.61,309.87z M341.22,413.56
		c0.03,0.98-0.74,1.79-1.72,1.82c-0.98,0.03-1.79-0.74-1.82-1.72c-0.03-0.97,0.74-1.79,1.71-1.82h0.06c0.95,0,1.73,0.75,1.76,1.7
		V413.56z"/>
	<path class="st1" d="M377.01,309.87v44.4l-28.84,27.89l0,0v44.21c-1.28,0.6-2.1,1.88-2.11,3.29c0.08,2.1,1.84,3.74,3.94,3.66
		c1.99-0.07,3.59-1.67,3.66-3.66c-0.01-1.41-0.83-2.69-2.11-3.29v-42.86l28.83-27.87l0,0v-45.76H377.01z M351.64,429.67
		c0.02,0.97-0.74,1.78-1.72,1.81c-0.97,0.02-1.78-0.74-1.81-1.72c-0.02-0.97,0.74-1.78,1.71-1.81h0.04
		C350.83,427.93,351.62,428.7,351.64,429.67C351.64,429.67,351.64,429.67,351.64,429.67z"/>
	<path class="st1" d="M387.36,309.87v46.36l-28.84,27.89l0,0v30.75c-1.28,0.6-2.1,1.88-2.11,3.29c0.08,2.1,1.84,3.74,3.94,3.66
		c1.99-0.07,3.59-1.67,3.66-3.66c-0.01-1.41-0.83-2.69-2.11-3.29v-29.39l28.83-27.89l0,0v-47.71H387.36z M361.99,418.18
		c0.03,0.98-0.74,1.79-1.72,1.82s-1.79-0.74-1.82-1.72c-0.03-0.97,0.74-1.79,1.71-1.82h0.05
		C361.19,416.45,361.97,417.22,361.99,418.18z"/>
	<path class="st1" d="M326.25,309.87v44.39l-28.82,27.89l0,0v30.04c-1.27,0.6-2.09,1.87-2.11,3.28c0.08,2.1,1.84,3.74,3.94,3.66
		c1.99-0.07,3.59-1.67,3.66-3.66c-0.02-1.41-0.84-2.68-2.11-3.28v-28.69l28.82-27.86l0,0v-45.77H326.25z M300.87,415.47
		c0.03,0.98-0.74,1.79-1.72,1.82s-1.79-0.74-1.82-1.72c-0.03-0.97,0.74-1.79,1.71-1.82h0.05
		C300.07,413.74,300.86,414.51,300.87,415.47L300.87,415.47L300.87,415.47z"/>
</g>
<path class="st0" d="M350.36,183.63l10.67,32.67l10.65-32.67h7.96l10.66,32.67l10.67-32.67h12.01l-17.04,49.3h-9.76l-10.51-29.94
	l-10.53,29.94h-9.76l-17.05-49.3H350.36z"/>
<path class="st0" d="M447.08,193.25h-16.75v9.56h15.92v9.56h-15.92v10.94h16.75v9.61h-28.31v-49.3h28.31V193.25z"/>
<path class="st0" d="M471.79,183.63c2.7,0,8.86,0.15,12.76,3.78c3.23,3.02,3.61,7.17,3.61,9.32c0.07,2.21-0.51,4.39-1.66,6.28
	c-0.99,1.61-2.46,2.88-4.2,3.62c2.58,0.4,4.98,1.55,6.9,3.32c1.66,1.63,3.23,4.43,3.23,8.8c0,4.95-1.95,8.05-3.91,9.98
	c-4.13,3.92-10.14,4.21-13.22,4.21h-18.82v-49.33L471.79,183.63z M467.89,203.66h1.88c1.58,0,4.21-0.22,5.86-1.4
	c1.34-1.04,2.1-2.66,2.01-4.36c0.06-1.61-0.67-3.16-1.95-4.14c-1.65-1.26-3.9-1.26-6-1.26h-1.8L467.89,203.66z M467.89,224.06h2.77
	c2.93,0,6.46-0.07,8.56-2.01c1.12-1.08,1.72-2.59,1.65-4.14c0.07-1.5-0.51-2.95-1.58-3.99c-2.01-1.85-5.93-1.85-8.26-1.85h-3.15
	L467.89,224.06z"/>
<path class="st0" d="M364.7,259.38c0.45-4.14,2.33-8.5,4.96-11.16c3.68-3.78,8.56-4.66,12.69-4.66c6.16,0,10.57,1.85,13.14,4.36
	c2.1,2.01,3.83,5.24,3.83,10.07c0,2.44-0.45,4.58-2.01,6.72c-0.95,1.35-2.25,2.42-3.75,3.11c2.25,0.75,4.23,2.14,5.7,3.99
	c1.51,2.01,2.33,5.1,2.33,7.76c-0.02,4.29-1.85,8.37-5.03,11.23c-4.28,3.84-9.16,4.28-13.22,4.28c-4.88,0-10.21-0.74-14.65-5.1
	c-3.16-3.33-5.1-7.63-5.54-12.2h11.58c0.17,2.06,1.01,4.01,2.4,5.54c1.52,1.36,3.5,2.08,5.54,2.01c1.95,0,3.83-0.59,5.03-1.7
	c1.32-1.34,2.05-3.15,2.01-5.03c0.02-1.82-0.78-3.55-2.17-4.72c-1.8-1.41-4.43-1.56-6.16-1.56h-0.91v-7.87h0.68
	c0.67,0,3.38-0.08,5.03-1.41c1.25-1.13,1.93-2.75,1.88-4.43c0.04-1.5-0.56-2.95-1.65-3.99c-2.61-2.01-6.26-1.95-8.79,0.15
	c-1.08,1.29-1.72,2.9-1.8,4.58L364.7,259.38z"/>
<path class="st0" d="M416.82,281.64c3.73,0.04,6.72,3.1,6.68,6.83c-0.04,3.73-3.1,6.72-6.83,6.68c-3.73-0.04-6.72-3.1-6.68-6.83
	c0.04-3.67,3.01-6.64,6.68-6.68H416.82z"/>
<path class="st0" d="M463.16,289.91c-2.93,2.81-7.28,5.1-13.44,5.1c-6,0-10.29-2.22-13.29-5.1c-4.88-4.73-7.21-12.2-7.21-20.64
	s2.33-16.04,7.21-20.7c3.02-2.88,7.29-5.09,13.29-5.09c6.16,0,10.51,2.29,13.44,5.1c4.88,4.66,7.21,12.2,7.21,20.7
	S468.06,285.19,463.16,289.91z M445.13,255.1c-3.68,3.52-4.2,10.64-4.2,14.09c0,3.84,0.67,10.79,4.2,14.19
	c2.62,2.46,6.7,2.46,9.31,0c3.52-3.4,4.21-10.35,4.21-14.19c0-3.48-0.5-10.57-4.21-14.09C451.83,252.64,447.75,252.64,445.13,255.1
	L445.13,255.1z"/>
</svg>
